<svg width="16" height="16" viewBox="0 0 16 16" fill="none" xmlns="http://www.w3.org/2000/svg">
<path d="M8 2.5C4.74998 2.5 2.01998 4.48 1 7.5C2.01998 10.52 4.74998 12.5 8 12.5C11.25 12.5 13.98 10.52 15 7.5C13.98 4.48 11.25 2.5 8 2.5ZM8 10.5C6.34998 10.5 5 9.15002 5 7.5C5 5.84998 6.34998 4.5 8 4.5C9.65002 4.5 11 5.84998 11 7.5C11 9.15002 9.65002 10.5 8 10.5ZM8 6C7.17498 6 6.5 6.67498 6.5 7.5C6.5 8.32502 7.17498 9 8 9C8.82502 9 9.5 8.32502 9.5 7.5C9.5 6.67498 8.82502 6 8 6Z" fill="#424242"/>
</svg>